<svg xmlns="http://www.w3.org/2000/svg"  viewBox="0 0 50 50" width="150px" height="150px"><path d="M 14 3.9902344 C 8.4886661 3.9902344 4 8.4789008 4 13.990234 L 4 35.990234 C 4 41.501568 8.4886661 45.990234 14 45.990234 L 36 45.990234 C 41.511334 45.990234 46 41.501568 46 35.990234 L 46 13.990234 C 46 8.4789008 41.511334 3.9902344 36 3.9902344 L 14 3.9902344 z M 14 5.9902344 L 36 5.9902344 C 40.430666 5.9902344 44 9.5595687 44 13.990234 L 44 35.990234 C 44 40.4209 40.430666 43.990234 36 43.990234 L 14 43.990234 C 9.5693339 43.990234 6 40.4209 6 35.990234 L 6 13.990234 C 6 9.5595687 9.5693339 5.9902344 14 5.9902344 z M 25.96875 13 C 19.8761 13 14.936407 18.072623 14.9375 24.277344 C 14.9375 25.011344 14.9116 26.023096 14.681641 26.712891 C 14.566659 27.057788 14.41509 27.300301 14.25 27.443359 C 14.08491 27.586418 13.902012 27.681641 13.490234 27.681641 A 1.0001 1.0001 0 0 0 12.568359 29.068359 C 13.6148 31.554021 15.297378 33.244558 17.513672 34.234375 A 3 3 0 0 0 20.5 37 A 3 3 0 0 0 23.117188 35.458984 A 1.0001 1.0001 0 0 0 23.201172 35.466797 C 24.073025 35.527957 24.997979 35.552734 25.96875 35.552734 C 26.124757 35.552734 26.278895 35.541965 26.433594 35.535156 C 26.958005 36.409517 27.906917 37 29 37 C 30.656 37 32 35.656 32 34 C 32 33.903132 31.985517 33.809459 31.976562 33.714844 C 35.001389 31.69808 37 28.224463 37 24.277344 C 37 18.072718 32.0614 13 25.96875 13 z M 25.96875 15 C 30.9541 15 35 19.12797 35 24.277344 C 35 27.67834 33.227798 30.631802 30.59375 32.248047 A 1.0001 1.0001 0 0 0 30.591797 32.248047 C 30.128809 32.532499 29.632588 32.761035 29.121094 32.957031 L 28.246094 33.240234 C 27.722401 33.379821 27.185708 33.486755 26.628906 33.527344 A 1.0001 1.0001 0 0 0 26.619141 33.527344 C 26.410297 33.544744 26.19475 33.552734 25.96875 33.552734 C 25.069853 33.552734 24.231658 33.528458 23.449219 33.476562 A 3 3 0 0 0 20.5 31 A 3 3 0 0 0 18.052734 32.271484 C 16.716706 31.589664 15.761401 30.566527 14.980469 29.158203 C 15.156813 29.061733 15.412371 29.081783 15.558594 28.955078 C 16.081723 28.501761 16.389185 27.918306 16.580078 27.345703 C 16.961865 26.200497 16.9375 25.011344 16.9375 24.277344 C 16.936593 19.128065 20.9834 15 25.96875 15 z M 23.925781 20 A 1.223 1.223 0 1 0 23.925781 22.445312 A 1.223 1.223 0 1 0 23.925781 20 z M 30.777344 20 A 1.223 1.223 0 1 0 30.777344 22.445312 A 1.223 1.223 0 1 0 30.777344 20 z M 23.726562 25.220703 A 1.0001 1.0001 0 0 0 22.851562 26.640625 C 22.851562 26.640625 24.199025 29.435547 27.435547 29.435547 C 30.672069 29.435547 32.019531 26.640625 32.019531 26.640625 A 1.0002746 1.0002746 0 0 0 30.191406 25.828125 C 30.191406 25.828125 29.581025 27.435547 27.435547 27.435547 C 25.290069 27.435547 24.679687 25.828125 24.679688 25.828125 A 1.0001 1.0001 0 0 0 23.726562 25.220703 z"/></svg>